<svg width="657" height="551" viewBox="0 0 657 551" fill="none" xmlns="http://www.w3.org/2000/svg">
<path d="M333 129.29C333 131.478 331.99 133.706 329.877 135.962C327.76 138.224 324.588 140.454 320.417 142.609C312.079 146.918 299.948 150.828 284.873 154.122C254.741 160.708 213.066 164.79 167 164.79C120.934 164.79 79.2589 160.708 49.1267 154.122C34.0525 150.828 21.9212 146.918 13.5828 142.609C9.4123 140.454 6.24033 138.224 4.12284 135.962C2.00995 133.706 1 131.478 1 129.29C1 127.102 2.00995 124.874 4.12284 122.617C6.24033 120.356 9.4123 118.126 13.5828 115.971C21.9212 111.662 34.0525 107.752 49.1267 104.457C79.2589 97.8716 120.934 93.7898 167 93.7898C213.066 93.7898 254.741 97.8716 284.873 104.457C299.948 107.752 312.079 111.662 320.417 115.971C324.588 118.126 327.76 120.356 329.877 122.617C331.99 124.874 333 127.102 333 129.29Z" stroke="black" stroke-width="2"/>
<path d="M333 157.29C333 159.478 331.99 161.706 329.877 163.962C327.76 166.224 324.588 168.454 320.417 170.609C312.079 174.918 299.948 178.828 284.873 182.122C254.741 188.708 213.066 192.79 167 192.79C120.934 192.79 79.2589 188.708 49.1267 182.122C34.0525 178.828 21.9212 174.918 13.5828 170.609C9.4123 168.454 6.24033 166.224 4.12284 163.962C2.00995 161.706 1 159.478 1 157.29C1 155.102 2.00995 152.874 4.12284 150.617C6.24033 148.356 9.4123 146.126 13.5828 143.971C21.9212 139.662 34.0525 135.752 49.1267 132.457C79.2589 125.872 120.934 121.79 167 121.79C213.066 121.79 254.741 125.872 284.873 132.457C299.948 135.752 312.079 139.662 320.417 143.971C324.588 146.126 327.76 148.356 329.877 150.617C331.99 152.874 333 155.102 333 157.29Z" stroke="black" stroke-width="2"/>
<path d="M333 185.29C333 187.478 331.99 189.706 329.877 191.962C327.76 194.224 324.588 196.454 320.417 198.609C312.079 202.918 299.948 206.828 284.873 210.122C254.741 216.708 213.066 220.79 167 220.79C120.934 220.79 79.2589 216.708 49.1267 210.122C34.0525 206.828 21.9212 202.918 13.5828 198.609C9.4123 196.454 6.24033 194.224 4.12284 191.962C2.00995 189.706 1 187.478 1 185.29C1 183.102 2.00995 180.874 4.12284 178.617C6.24033 176.356 9.4123 174.126 13.5828 171.971C21.9212 167.662 34.0525 163.752 49.1267 160.457C79.2589 153.872 120.934 149.79 167 149.79C213.066 149.79 254.741 153.872 284.873 160.457C299.948 163.752 312.079 167.662 320.417 171.971C324.588 174.126 327.76 176.356 329.877 178.617C331.99 180.874 333 183.102 333 185.29Z" stroke="black" stroke-width="2"/>
<path d="M333 213.29C333 215.478 331.99 217.706 329.877 219.962C327.76 222.224 324.588 224.454 320.417 226.609C312.079 230.918 299.948 234.828 284.873 238.122C254.741 244.708 213.066 248.79 167 248.79C120.934 248.79 79.2589 244.708 49.1267 238.122C34.0525 234.828 21.9212 230.918 13.5828 226.609C9.4123 224.454 6.24033 222.224 4.12284 219.962C2.00995 217.706 1 215.478 1 213.29C1 211.102 2.00995 208.874 4.12284 206.617C6.24033 204.356 9.4123 202.126 13.5828 199.971C21.9212 195.662 34.0525 191.752 49.1267 188.457C79.2589 181.872 120.934 177.79 167 177.79C213.066 177.79 254.741 181.872 284.873 188.457C299.948 191.752 312.079 195.662 320.417 199.971C324.588 202.126 327.76 204.356 329.877 206.617C331.99 208.874 333 211.102 333 213.29Z" stroke="black" stroke-width="2"/>
<path d="M333 241.29C333 243.478 331.99 245.706 329.877 247.962C327.76 250.224 324.588 252.454 320.417 254.609C312.079 258.918 299.948 262.828 284.873 266.122C254.741 272.708 213.066 276.79 167 276.79C120.934 276.79 79.2589 272.708 49.1267 266.122C34.0525 262.828 21.9212 258.918 13.5828 254.609C9.4123 252.454 6.24033 250.224 4.12284 247.962C2.00995 245.706 1 243.478 1 241.29C1 239.102 2.00995 236.874 4.12284 234.617C6.24033 232.356 9.4123 230.126 13.5828 227.971C21.9212 223.662 34.0525 219.752 49.1267 216.457C79.2589 209.872 120.934 205.79 167 205.79C213.066 205.79 254.741 209.872 284.873 216.457C299.948 219.752 312.079 223.662 320.417 227.971C324.588 230.126 327.76 232.356 329.877 234.617C331.99 236.874 333 239.102 333 241.29Z" stroke="black" stroke-width="2"/>
<path d="M333 269.29C333 271.478 331.99 273.706 329.877 275.962C327.76 278.224 324.588 280.454 320.417 282.609C312.079 286.918 299.948 290.828 284.873 294.122C254.741 300.708 213.066 304.79 167 304.79C120.934 304.79 79.2589 300.708 49.1267 294.122C34.0525 290.828 21.9212 286.918 13.5828 282.609C9.4123 280.454 6.24033 278.224 4.12284 275.962C2.00995 273.706 1 271.478 1 269.29C1 267.102 2.00995 264.874 4.12284 262.617C6.24033 260.356 9.4123 258.126 13.5828 255.971C21.9212 251.662 34.0525 247.752 49.1267 244.457C79.2589 237.872 120.934 233.79 167 233.79C213.066 233.79 254.741 237.872 284.873 244.457C299.948 247.752 312.079 251.662 320.417 255.971C324.588 258.126 327.76 260.356 329.877 262.617C331.99 264.874 333 267.102 333 269.29Z" stroke="black" stroke-width="2"/>
<path d="M333 297.29C333 299.478 331.99 301.706 329.877 303.962C327.76 306.224 324.588 308.454 320.417 310.609C312.079 314.918 299.948 318.828 284.873 322.122C254.741 328.708 213.066 332.79 167 332.79C120.934 332.79 79.2589 328.708 49.1267 322.122C34.0525 318.828 21.9212 314.918 13.5828 310.609C9.4123 308.454 6.24033 306.224 4.12284 303.962C2.00995 301.706 1 299.478 1 297.29C1 295.102 2.00995 292.874 4.12284 290.617C6.24033 288.356 9.4123 286.126 13.5828 283.971C21.9212 279.662 34.0525 275.752 49.1267 272.457C79.2589 265.872 120.934 261.79 167 261.79C213.066 261.79 254.741 265.872 284.873 272.457C299.948 275.752 312.079 279.662 320.417 283.971C324.588 286.126 327.76 288.356 329.877 290.617C331.99 292.874 333 295.102 333 297.29Z" stroke="black" stroke-width="2"/>
<path d="M333 325.29C333 327.478 331.99 329.706 329.877 331.962C327.76 334.224 324.588 336.454 320.417 338.609C312.079 342.918 299.948 346.828 284.873 350.122C254.741 356.708 213.066 360.79 167 360.79C120.934 360.79 79.2589 356.708 49.1267 350.122C34.0525 346.828 21.9212 342.918 13.5828 338.609C9.4123 336.454 6.24033 334.224 4.12284 331.962C2.00995 329.706 1 327.478 1 325.29C1 323.102 2.00995 320.874 4.12284 318.617C6.24033 316.356 9.4123 314.126 13.5828 311.971C21.9212 307.662 34.0525 303.752 49.1267 300.457C79.2589 293.872 120.934 289.79 167 289.79C213.066 289.79 254.741 293.872 284.873 300.457C299.948 303.752 312.079 307.662 320.417 311.971C324.588 314.126 327.76 316.356 329.877 318.617C331.99 320.874 333 323.102 333 325.29Z" stroke="black" stroke-width="2"/>
<path d="M333 353.29C333 355.478 331.99 357.706 329.877 359.962C327.76 362.224 324.588 364.454 320.417 366.609C312.079 370.918 299.948 374.828 284.873 378.122C254.741 384.708 213.066 388.79 167 388.79C120.934 388.79 79.2589 384.708 49.1267 378.122C34.0525 374.828 21.9212 370.918 13.5828 366.609C9.4123 364.454 6.24033 362.224 4.12284 359.962C2.00995 357.706 1 355.478 1 353.29C1 351.102 2.00995 348.874 4.12284 346.617C6.24033 344.356 9.4123 342.126 13.5828 339.971C21.9212 335.662 34.0525 331.752 49.1267 328.457C79.2589 321.872 120.934 317.79 167 317.79C213.066 317.79 254.741 321.872 284.873 328.457C299.948 331.752 312.079 335.662 320.417 339.971C324.588 342.126 327.76 344.356 329.877 346.617C331.99 348.874 333 351.102 333 353.29Z" stroke="black" stroke-width="2"/>
<path d="M333 381.29C333 383.478 331.99 385.706 329.877 387.962C327.76 390.224 324.588 392.454 320.417 394.609C312.079 398.918 299.948 402.828 284.873 406.122C254.741 412.708 213.066 416.79 167 416.79C120.934 416.79 79.2589 412.708 49.1267 406.122C34.0525 402.828 21.9212 398.918 13.5828 394.609C9.4123 392.454 6.24033 390.224 4.12284 387.962C2.00995 385.706 1 383.478 1 381.29C1 379.102 2.00995 376.874 4.12284 374.617C6.24033 372.356 9.4123 370.126 13.5828 367.971C21.9212 363.662 34.0525 359.752 49.1267 356.457C79.2589 349.872 120.934 345.79 167 345.79C213.066 345.79 254.741 349.872 284.873 356.457C299.948 359.752 312.079 363.662 320.417 367.971C324.588 370.126 327.76 372.356 329.877 374.617C331.99 376.874 333 379.102 333 381.29Z" stroke="black" stroke-width="2"/>
<rect x="122.856" y="149.687" width="475.364" height="327.795" rx="9" fill="white"/>
<circle cx="156.856" cy="178.687" r="9" stroke="black" stroke-width="2"/>
<circle cx="184.856" cy="178.687" r="9" stroke="black" stroke-width="2"/>
<circle cx="212.856" cy="178.687" r="9" stroke="black" stroke-width="2"/>
<line x1="121.856" y1="206.187" x2="548.857" y2="206.187" stroke="black"/>
<rect x="210.356" y="296.187" width="31" height="31" rx="4.5" fill="#B9FF66" stroke="black"/>
<rect x="320.606" y="296.437" width="30.5" height="30.5" rx="4.25" fill="white" stroke="black" stroke-width="1.5"/>
<rect x="430.606" y="296.437" width="30.5" height="30.5" rx="4.25" fill="white" stroke="black" stroke-width="1.5"/>
<path d="M234.155 276.7L234.417 278.371L235.48 277.055L271.184 232.812L250.72 285.854L250.111 287.432L251.69 286.823L304.731 266.36L260.489 302.064L259.172 303.126L260.844 303.388L317.011 312.187L260.844 320.986L259.172 321.248L260.489 322.311L304.731 358.014L251.69 337.551L250.111 336.942L250.72 338.521L271.184 391.562L235.48 347.32L234.417 346.003L234.155 347.675L225.356 403.841L216.557 347.675L216.296 346.003L215.233 347.32L179.529 391.562L199.992 338.521L200.602 336.942L199.023 337.551L145.982 358.014L190.224 322.311L191.541 321.248L189.869 320.986L133.702 312.187L189.869 303.388L191.541 303.126L190.224 302.064L145.982 266.36L199.023 286.823L200.602 287.432L199.992 285.854L179.529 232.812L215.233 277.055L216.296 278.371L216.557 276.7L225.356 220.533L234.155 276.7Z" stroke="black" stroke-width="1.5"/>
<rect x="122.856" y="149.687" width="475.364" height="327.795" rx="9" stroke="black" stroke-width="2"/>
<path d="M651.333 290.108C651.333 291.58 652.527 292.774 654 292.774C655.473 292.774 656.667 291.58 656.667 290.108C656.667 288.635 655.473 287.441 654 287.441C652.527 287.441 651.333 288.635 651.333 290.108ZM428.174 98.8794H609V97.8794H428.174V98.8794ZM653.5 143.379V290.108H654.5V143.379H653.5ZM609 98.8794C633.577 98.8794 653.5 118.803 653.5 143.379H654.5C654.5 118.25 634.129 97.8794 609 97.8794V98.8794Z" fill="black"/>
<path d="M455.685 409.369C462.733 411.777 470.787 407.004 473.589 398.728L517.187 270.989L491.711 262.274L448.069 390.188C445.267 398.377 448.681 406.96 455.685 409.369Z" fill="black"/>
<path d="M459.494 410.945C461.551 410.945 463.653 410.464 465.666 409.456C469.737 407.442 472.976 403.676 474.552 399.034L518.151 271.295C518.326 270.814 518.063 270.244 517.538 270.069L492.062 261.355C491.799 261.267 491.536 261.267 491.317 261.399C491.099 261.53 490.923 261.705 490.836 261.968L447.194 389.882C444.261 398.552 447.938 407.705 455.423 410.288C456.692 410.726 458.093 410.945 459.494 410.945ZM515.962 271.602L472.67 398.421C471.269 402.581 468.38 405.997 464.791 407.749C461.902 409.15 458.794 409.413 455.992 408.449C449.514 406.216 446.362 398.158 448.988 390.495L492.324 263.501L515.962 271.602Z" fill="black"/>
<path d="M496.221 152.008L578.646 210.82L610.732 244.145L623.339 266.434L623.383 266.609C625.878 270.463 624.433 279.353 619.75 288.418C615.153 297.351 608.675 303.569 604.123 303.92L604.254 304.007L580.047 306.635L534.741 299.409L438.571 264.989L319.025 285.483L318.194 285.527C348.222 279.922 388.757 239.766 418.216 182.968C447.632 126.215 457 70.1186 444.086 42.4426H444.13L495.564 150.607L496.221 152.008Z" fill="#B9FF66"/>
<path d="M298.326 283.055C268.781 267.706 274.494 198.12 311.086 127.632C347.678 57.1426 401.292 12.4432 430.837 27.7925C460.381 43.1419 454.668 112.728 418.077 183.216C381.485 253.705 327.871 298.405 298.326 283.055Z" fill="white"/>
<path d="M311.32 287.06C324.19 287.06 339.686 279.879 356.363 265.909C379.082 246.904 401.362 217.608 419.091 183.363C445.924 131.514 456.999 78.3517 447.281 47.9168C444.042 37.7573 438.614 30.6631 431.216 26.8533C416.508 19.3212 395.803 25.7147 372.866 44.8952C350.147 63.9006 327.867 93.1969 310.138 127.442C283.261 179.29 272.187 232.453 281.948 262.888C285.188 273.047 290.615 280.141 298.013 283.951C301.997 286.053 306.461 287.06 311.32 287.06ZM417.821 25.7147C422.33 25.7147 426.532 26.6343 430.297 28.6049C437.257 32.152 442.335 38.8958 445.399 48.5737C454.985 78.5706 443.954 131.164 417.34 182.575C381.095 252.509 327.954 297.264 298.845 282.331C291.885 278.784 286.807 272.04 283.743 262.362C274.157 232.365 285.188 179.772 311.802 128.361C343.363 67.4915 387.661 25.7147 417.821 25.7147Z" fill="black"/>
<path d="M311.32 287.06C324.19 287.06 339.686 279.878 356.363 265.909C379.082 246.904 401.362 217.607 419.091 183.363C445.924 131.514 456.999 78.3515 447.281 47.9167C444.042 37.7571 438.614 30.6629 431.216 26.8531C421.367 21.7733 408.498 23.0433 394.009 30.4878C380.132 37.6257 365.118 50.2814 350.498 67.0534C350.147 67.4475 350.191 68.0606 350.585 68.4109C350.979 68.7612 351.592 68.7175 351.942 68.3233C381.621 34.2538 411.649 19.0145 430.297 28.6048C437.257 32.1518 442.335 38.8957 445.399 48.5735C454.985 78.5705 443.954 131.164 417.34 182.574C385.823 243.4 341.48 285.221 311.364 285.221C306.855 285.221 302.653 284.301 298.889 282.331C291.929 278.784 286.851 272.04 283.787 262.362C274.2 232.365 285.231 179.772 311.846 128.361C319.769 113.034 328.698 98.6268 338.285 85.5333C338.591 85.0953 338.504 84.4823 338.066 84.1757C337.628 83.8692 337.015 83.9568 336.709 84.3947C327.035 97.5758 318.105 112.071 310.095 127.485C283.261 179.29 272.187 232.453 281.948 262.887C285.188 273.047 290.615 280.141 298.013 283.951C301.997 286.053 306.461 287.06 311.32 287.06Z" fill="black"/>
<path d="M365.362 193.324C358.517 189.768 359.834 173.661 368.302 157.348C376.77 141.035 389.184 130.694 396.028 134.25C402.872 137.806 401.556 153.912 393.088 170.225C384.619 186.538 372.206 196.88 365.362 193.324Z" fill="#B9FF66"/>
<path d="M368.357 195.011C375.886 195.011 386.392 185.29 393.964 170.62C400.268 158.446 402.85 145.921 400.53 138.696C399.699 136.156 398.342 134.361 396.459 133.397C389.018 129.587 376.28 139.966 367.438 157.001C361.134 169.174 358.552 181.699 360.872 188.924C361.703 191.464 363.06 193.26 364.942 194.223C365.993 194.749 367.131 195.011 368.357 195.011ZM393.045 134.492C393.964 134.492 394.84 134.667 395.584 135.061C397.028 135.806 398.079 137.207 398.736 139.265C400.881 146.009 398.385 158.008 392.301 169.744C384.247 185.29 372.121 195.756 365.862 192.515C364.417 191.771 363.367 190.369 362.71 188.311C360.565 181.524 363.104 169.569 369.145 157.833C376.236 144.214 386.391 134.492 393.045 134.492Z" fill="#B9FF66"/>
<path d="M317.974 270.726C329.267 270.726 342.837 264.42 357.457 252.202C377.331 235.562 396.854 209.9 412.349 179.947C435.856 134.579 445.53 88.0293 437.038 61.3605C434.192 52.4271 429.421 46.2087 422.899 42.8368C407.928 35.1734 385.91 44.0192 362.448 67.0971C362.054 67.4912 362.054 68.0605 362.448 68.4546C362.841 68.8488 363.411 68.8488 363.804 68.4546C386.654 45.9898 407.884 37.2315 422.023 44.5447C428.064 47.6538 432.485 53.4781 435.199 61.9297C443.56 88.1169 433.93 134.098 410.642 179.071C383.109 232.277 344.369 268.799 318.017 268.799C314.078 268.799 310.445 267.967 307.118 266.303C301.077 263.194 296.656 257.37 293.942 248.918C285.581 222.731 295.211 176.75 318.499 131.777C325.546 118.201 333.426 105.458 341.918 93.9411C342.224 93.5032 342.137 92.8901 341.699 92.5836C341.261 92.277 340.648 92.3646 340.342 92.8025C331.762 104.451 323.839 117.238 316.748 130.901C293.242 176.268 283.568 222.818 292.06 249.487C294.905 258.421 299.676 264.639 306.199 268.011C309.788 269.806 313.728 270.726 317.974 270.726Z" fill="black"/>
<path d="M580.002 307.555C580.046 307.555 580.09 307.555 580.09 307.555L604.296 304.927C604.428 304.927 604.559 304.883 604.69 304.796C609.681 304.008 615.984 297.702 620.58 288.856C625.483 279.528 626.927 270.42 624.257 266.128L624.213 265.997L611.607 243.663C611.563 243.576 611.519 243.532 611.475 243.488L579.389 210.163C579.345 210.119 579.302 210.076 579.258 210.032L497.051 151.352L445.048 42.0051C444.917 41.7862 444.742 41.611 444.479 41.5234C444.217 41.4359 443.954 41.4359 443.735 41.5672C443.254 41.7862 443.035 42.3555 443.254 42.8372C456.429 71.0825 446.011 127.223 417.383 182.487C388.712 237.839 348.746 278.828 317.974 284.477C317.492 284.564 317.142 285.002 317.186 285.528C317.229 286.009 317.667 286.36 318.149 286.404L318.98 286.36C319.024 286.36 319.068 286.36 319.112 286.36L438.438 265.909L534.39 300.242C534.434 300.242 534.521 300.285 534.565 300.285L579.871 307.511C579.915 307.555 579.958 307.555 580.002 307.555ZM603.596 303.088L580.002 305.628L534.915 298.402L438.789 264.026C438.614 263.982 438.482 263.939 438.307 263.982L330.887 282.375C359.909 269.632 393.833 232.015 419.003 183.407C443.998 135.149 455.16 86.1466 449.032 55.1863L495.344 152.403C495.432 152.534 495.519 152.665 495.65 152.753L577.989 211.564L609.943 244.714L622.55 267.048C622.55 267.092 622.594 267.135 622.594 267.135C624.87 270.683 623.338 279.441 618.917 287.98C614.583 296.344 608.324 302.65 604.034 302.957C603.859 302.957 603.727 303 603.596 303.088Z" fill="black"/>
<path d="M496.09 151.658L444.131 42.3989H444.087C457 70.0749 447.589 126.171 418.217 182.925C388.757 239.766 348.223 279.922 318.107 285.44L318.938 285.396L438.309 264.946L441.067 264.464C454.943 262.012 473.459 243.97 486.722 218.22C500.336 191.814 502.744 165.496 496.703 152.972L496.09 151.658Z" fill="white"/>
<path d="M318.107 286.403C318.107 286.403 318.15 286.403 318.107 286.403L318.982 286.359C319.026 286.359 319.07 286.359 319.113 286.359L438.484 265.909L441.242 265.427C455.906 262.844 474.51 244.057 487.598 218.702C502.437 189.888 503.181 164.226 497.578 152.577L496.922 151.264L444.962 42.0486C444.831 41.8296 444.656 41.6545 444.393 41.5669C444.131 41.4793 443.868 41.4793 443.649 41.6107C443.168 41.8296 442.949 42.3989 443.168 42.8806C456.344 71.1259 445.925 127.266 417.298 182.531C388.626 237.883 348.661 278.871 317.888 284.52C317.406 284.608 317.056 285.046 317.1 285.571C317.231 286.009 317.625 286.403 318.107 286.403ZM449.121 55.1859L495.214 152.096L495.871 153.41C501.43 164.97 499.811 190.807 485.891 217.782C473.065 242.656 454.987 261.048 440.891 263.5L438.134 263.982L330.932 282.374C359.954 269.631 393.879 232.015 419.048 183.406C444.043 135.149 455.205 86.1463 449.121 55.1859Z" fill="black"/>
<path d="M581.316 307.423C581.36 307.423 581.404 307.423 581.404 307.423L604.341 304.971C604.472 304.971 604.604 304.927 604.735 304.839C609.725 304.051 616.029 297.745 620.625 288.899C625.484 279.528 626.928 270.419 624.258 266.128L624.214 265.997L611.607 243.663C611.345 243.181 610.776 243.05 610.294 243.313C609.813 243.575 609.681 244.145 609.944 244.626L622.551 267.048C622.551 267.091 622.595 267.135 622.595 267.135C624.871 270.682 623.339 279.44 618.918 287.98C614.584 296.344 608.324 302.65 604.035 302.956C603.903 302.956 603.728 303 603.641 303.088L581.229 305.496C580.703 305.54 580.309 306.022 580.397 306.547C580.441 307.029 580.835 307.423 581.316 307.423Z" fill="black"/>
<path d="M579.784 306.46C587.226 305.934 597.644 295.381 605.217 280.798C613.227 265.34 615.11 249.356 610.207 243.663L623.295 266.435L623.383 266.61C625.878 270.463 624.433 279.353 619.75 288.418C615.153 297.351 608.675 303.57 604.123 303.92L604.254 304.008L579.784 306.46Z" fill="white"/>
<path d="M579.784 307.423C579.828 307.423 579.828 307.423 579.872 307.423C580.047 307.423 580.266 307.379 580.441 307.379L604.341 304.971C604.472 304.971 604.604 304.927 604.735 304.84C609.725 304.051 616.029 297.745 620.625 288.9C625.484 279.528 626.928 270.42 624.258 266.128L624.214 265.997L612.702 245.94C612.264 244.802 611.695 243.795 610.995 242.963C610.688 242.568 610.119 242.525 609.725 242.787C609.331 243.094 609.2 243.619 609.463 244.057L611.082 246.816C613.665 253.779 611.126 267.442 604.472 280.229C597.25 294.198 587.401 304.402 580.353 305.321L579.828 305.365C579.303 305.409 578.909 305.89 578.952 306.416C578.909 307.029 579.303 307.423 579.784 307.423ZM603.641 303.088L586.919 304.796C593.354 300.679 600.445 292.184 606.092 281.236C611.564 270.682 614.278 259.735 613.84 251.852L622.551 267.048C622.551 267.092 622.595 267.135 622.595 267.135C624.871 270.682 623.339 279.441 618.918 287.98C614.584 296.344 608.324 302.65 604.035 302.956C603.903 302.956 603.728 303 603.641 303.088Z" fill="black"/>
<path d="M536.361 299.584L534.435 299.19C544.853 301.38 561.312 285.615 572.912 263.238C584.775 240.379 587.007 217.563 578.603 210.82L579.697 211.914L610.12 243.532C615.11 249.137 613.271 265.208 605.217 280.754C597.469 295.731 586.482 306.416 578.997 306.372L536.361 299.584Z" fill="black"/>
<path d="M579.039 307.379C587.006 307.379 598.081 296.65 606.091 281.236C614.233 265.471 616.291 249.006 610.863 242.919L581.009 211.915C580.484 211.214 579.871 210.601 579.215 210.075C578.821 209.769 578.252 209.813 577.901 210.163C577.551 210.557 577.551 211.126 577.901 211.477L579.609 213.272C585.693 221.417 582.673 242.262 572.036 262.8C560.567 284.958 544.546 300.154 534.741 298.315L534.609 298.271C534.084 298.183 533.603 298.49 533.471 299.015C533.384 299.541 533.69 300.022 534.215 300.154C534.259 300.154 534.303 300.154 534.347 300.198L536.141 300.548H536.185L578.821 307.335C578.908 307.335 578.996 307.379 579.039 307.379ZM583.548 217.345L609.418 244.232C614.233 249.663 612.045 265.515 604.341 280.36C596.812 294.899 586.175 305.409 579.039 305.452L541.394 299.453C551.55 295.862 564.069 282.331 573.743 263.72C582.935 245.984 586.481 227.942 583.548 217.345Z" fill="black"/>
<path d="M396.022 134.229C402.894 137.732 401.887 153.979 393.132 170.182C378.468 197.288 366.781 194.092 365.424 193.61C365.38 193.61 365.38 193.654 365.424 193.654L390.594 213.929C397.991 203.55 405.039 191.99 411.517 179.509C417.689 167.554 422.898 155.643 427.013 144.082L396.022 134.229Z" fill="black"/>
<path d="M390.594 214.892C390.638 214.892 390.682 214.892 390.725 214.892C390.988 214.849 391.207 214.717 391.382 214.498C398.955 203.857 406.002 192.209 412.35 179.991C418.434 168.255 423.687 156.3 427.889 144.476C427.977 144.214 427.977 143.951 427.845 143.732C427.714 143.513 427.539 143.338 427.276 143.25L396.285 133.397C395.803 133.266 395.278 133.485 395.103 133.966C394.928 134.448 395.103 134.974 395.541 135.193C397.029 135.937 398.123 137.426 398.78 139.616C400.925 146.491 398.298 158.665 392.214 169.831C377.9 196.281 366.869 193.26 365.687 192.822C365.249 192.647 364.724 192.866 364.505 193.26C364.286 193.654 364.374 194.223 364.724 194.53L389.981 214.674C390.156 214.805 390.375 214.892 390.594 214.892ZM425.744 144.695C421.586 156.125 416.508 167.686 410.642 179.071C404.514 190.895 397.685 202.149 390.375 212.528L368.532 194.924C373.522 194.705 382.934 190.983 393.965 170.62C400.356 158.84 402.982 146.403 400.662 138.915C400.356 137.951 400.005 137.119 399.568 136.331L425.744 144.695Z" fill="black"/>
<path d="M411.308 476.855L446.497 496.028L411.308 515.355L392.059 550.466L372.809 515.355L337.62 496.028L372.809 476.855L392.059 441.59L411.308 476.855Z" fill="black" stroke="white" stroke-width="2" stroke-miterlimit="10"/>
</svg>
